<svg width="20" height="20" viewBox="0 0 20 20" fill="none" xmlns="http://www.w3.org/2000/svg">
<path fill-rule="evenodd" clip-rule="evenodd" d="M10 20C15.5228 20 20 15.5228 20 10C20 4.47715 15.5228 0 10 0C4.47715 0 0 4.47715 0 10C0 15.5228 4.47715 20 10 20ZM6.36803 8.03135C5.98882 7.62983 5.35591 7.61174 4.95439 7.99096C4.55287 8.37017 4.53479 9.00307 4.914 9.40459L9.27298 14.02C9.46189 14.22 9.72486 14.3334 9.99999 14.3334C10.2751 14.3334 10.5381 14.22 10.727 14.02L15.086 9.40459C15.4652 9.00307 15.4471 8.37017 15.0456 7.99096C14.6441 7.61174 14.0112 7.62983 13.632 8.03135L9.99999 11.877L6.36803 8.03135Z" fill="#E2D34B"/>
</svg>
